<?xml version="1.0" encoding="iso-8859-1"?>
<!-- Uploaded to: SVG Repo, www.svgrepo.com, Generator: SVG Repo Mixer Tools -->
<svg fill="#FFFFFF" height="800px" width="800px" version="1.1" id="Layer_1" xmlns="http://www.w3.org/2000/svg" xmlns:xlink="http://www.w3.org/1999/xlink" 
	 viewBox="0 0 512.853 512.853" xml:space="preserve">
<g transform="translate(1 1)">
	<g>
		<g>
			<path d="M509.293,284.013l-91.256-116.144c-0.882-15.422-23.822-31.649-81.117-49.402l-27.307-20.48l-0.322,0.429
				c-0.173-0.147-0.349-0.291-0.532-0.429L264.387,71.21V58.733c0-5.12-3.413-8.533-8.533-8.533c-9.387,0-17.067-7.68-17.067-17.067
				c0-9.387,7.68-17.067,17.067-17.067s17.067,7.68,17.067,17.067c0,5.12,3.413,8.533,8.533,8.533s8.533-3.413,8.533-8.533
				C289.987,14.36,274.627-1,255.853-1C237.08-1,221.72,14.36,221.72,33.133c0,16.213,11.093,29.013,25.6,33.28v3.766L208.1,93.847
				c-3.016-1.422-6.727-1.113-9.42,1.579l-23.893,23.893c-55.091,17.07-77.724,32.729-80.736,46.978L1.56,284.013
				C-1.853,287.427-1,293.4,3.267,295.96L63,338.627c2.56,1.707,5.973,1.707,8.533,0.853l47.787-25.259V503.32
				c0,5.12,3.413,8.533,8.533,8.533h256c5.12,0,8.533-3.413,8.533-8.533V314.672l46.933,24.808c2.56,1.707,5.973,0.853,8.533-0.853
				l59.733-42.667C511.853,293.4,512.707,287.427,509.293,284.013z M255.853,86.04l38.382,23.029l-1.558,3.36L273.773,152.6h-36.119
				l-20.182-43.531L255.853,86.04z M245.613,169.667h20.48l-10.24,22.187L245.613,169.667z M68.973,321.56l-47.787-34.133
				l83.139-106.045c4.031,4.423,7.608,12.896,10.727,24.125c1.707,6.827,2.56,14.507,3.413,23.04c0,2.56,0.853,5.12,0.853,7.68
				c0,1.707,0,2.56,0,2.56v56.32L68.973,321.56z M136.387,493.933v-256c0-0.853,0-1.707,0-3.413c0-2.56,0-5.12-0.853-8.533
				c-0.853-8.533-2.56-17.067-4.267-24.747c-3.997-15.99-9.555-28.338-17.892-35.014c0.844-0.844,1.697-1.697,3.385-3.385
				c11.093-8.533,31.573-17.92,64.853-28.16c1.707,0,2.56-0.853,3.413-2.56l16.034-16.034l22.366,48.46
				c0.617,0.823,1.235,1.541,1.864,2.166l22.883,49.034c3.413,6.827,12.8,6.827,15.36,0l23.893-51.2
				c0.431-1.006,0.654-2.009,0.722-2.987l21.465-46.507l17.067,17.067c0.853,0.853,2.56,1.707,3.413,2.56
				c33.28,10.24,53.76,19.627,64.853,28.16c1.334,0.667,2.145,1.851,2.844,2.746c-8.545,6.508-14.763,19.136-18.204,35.654
				c-1.707,7.68-3.413,16.213-4.267,24.747c0,2.56-0.853,5.973-0.853,8.533c0,1.707,0,2.56,0,3.413l0.853,62.293
				c0,0,0,0.001,0,0.001v193.706H136.387z M442.733,320.707l-50.347-25.6v-57.173c0,0,0-0.853,0-2.56c0-2.56,0-5.12,0.853-7.68
				c0.853-7.68,1.707-15.36,3.413-23.04c1.805-7.823,4.459-14.365,7.064-19.343c1.153-1.947,2.361-3.58,3.601-4.862l83.202,106.125
				L442.733,320.707z"/>
			<path d="M255.853,272.067c-41.813,0-76.8,17.92-76.8,42.667c0,24.747,34.987,42.667,76.8,42.667c41.813,0,76.8-17.92,76.8-42.667
				C332.653,289.987,297.667,272.067,255.853,272.067z M255.853,340.333c-33.28,0-59.733-12.8-59.733-25.6s26.453-25.6,59.733-25.6
				c33.28,0,59.733,12.8,59.733,25.6S289.133,340.333,255.853,340.333z"/>
			<path d="M272.92,306.2h-34.133c-5.12,0-8.533,3.413-8.533,8.533s3.413,8.533,8.533,8.533h34.133c5.12,0,8.533-3.413,8.533-8.533
				S278.04,306.2,272.92,306.2z"/>
		</g>
	</g>
</g>
</svg>