<?xml version="1.0" encoding="iso-8859-1"?>
<!-- Uploaded to: SVG Repo, www.svgrepo.com, Generator: SVG Repo Mixer Tools -->
<svg fill="#FFFFFF" height="800px" width="800px" version="1.1" id="Layer_1" xmlns="http://www.w3.org/2000/svg" xmlns:xlink="http://www.w3.org/1999/xlink" 
	 viewBox="0 0 512.06 512.06" xml:space="preserve">
<g transform="translate(1 1)">
	<g>
		<path d="M511.042,300.554c-0.051-3.575-0.987-7.187-2.93-10.492l-15.105-25.687c-0.344-0.585-0.751-1.107-1.2-1.576l-98.169-166.9
			c-2.847-4.875-6.509-9.219-10.834-12.852c-8.886-7.462-20.105-11.548-31.703-11.548h-2.182c-0.013,0-0.025-0.003-0.038-0.003
			h-27.488c-7.23-15.857-34.534-25.6-66.379-25.6c-31.845,0-59.149,9.743-66.379,25.6h-27.488c-0.013,0-0.025,0.003-0.038,0.003
			h-2.187c-11.595,0-22.823,4.09-31.697,11.55c-4.326,3.634-7.991,7.983-10.839,12.864l-97.868,167.59
			c-0.442,0.467-0.843,0.984-1.18,1.562L1.739,291.782c-1.818,3.111-2.687,6.507-2.723,9.868
			c-0.239,7.152,3.369,14.203,10.001,18.032l24.456,14.122c9.53,5.501,21.708,2.289,27.283-7.196l57.725-98.286l-0.015,184.509
			c0,3.316,1.92,6.331,4.924,7.733l58.82,27.452c46.141,21.531,99.446,21.531,145.577,0l58.82-27.452
			c3.004-1.402,4.924-4.417,4.924-7.732l0.015-184.814l58.278,98.145c5.591,9.428,17.73,12.597,27.229,7.112l23.338-13.474
			C507.473,315.716,511.314,308.186,511.042,300.554z M493.404,299.176c0.378,0.643,0.548,1.345,0.566,2.042
			c-0.11,1.344-0.848,2.614-2.104,3.338l-23.35,13.484c-1.397,0.806-3.195,0.336-4.018-1.051l-10.652-17.942l28.731-18.277
			L493.404,299.176z M271.965,358.916l-16.968,22.624l-16.968-22.624l0.588-17.029l32.601-4.659L271.965,358.916z M191.41,88.565
			l28.503,32.574l-15.03,20.042l-29.231-52.616H191.41z M239.802,307.585l30.244-4.319l0.58,16.808l-31.411,4.489L239.802,307.585z
			 M267.873,240.239L242,243.934l0.587-16.978l24.707-3.527L267.873,240.239z M268.465,257.394l0.99,28.716l-29.056,4.149l1.001-29
			L268.465,257.394z M266.702,206.275l-23.521,3.357l2.055-59.551l3.357,3.837c3.4,3.885,9.444,3.885,12.844,0l3.328-3.803
			L266.702,206.275z M318.621,88.565h15.756l-29.231,52.616l-15.029-20.04L318.621,88.565z M216.138,69.77
			c10-4.285,23.915-6.808,38.877-6.808s28.877,2.522,38.877,6.808c6.19,2.653,9.98,5.561,11.523,7.967l-32.698,37.368
			c-0.004,0.005-0.008,0.01-0.012,0.015l-6.554,7.49c-0.007,0.008-0.015,0.014-0.022,0.022l-11.114,12.704l-3.666-4.19l-7.473-8.541
			c0,0,0,0,0,0l-6.55-7.486c-0.004-0.005-0.008-0.01-0.012-0.015l-32.698-37.368C206.157,75.332,209.948,72.423,216.138,69.77z
			 M46.039,317.499c-0.821,1.401-2.621,1.875-4.022,1.065l-24.47-14.125c-0.865-0.499-1.375-1.369-1.459-2.291
			c0.028-0.444,0.145-0.887,0.383-1.296l11.682-20.004l30.067,15.918L46.039,317.499z M390.353,192.582
			c-4.429-7.459-15.87-4.319-15.871,4.356l-0.017,210.459l-53.896,25.154c-41.557,19.395-89.577,19.395-131.142,0l-53.895-25.153
			l0.017-210.459c0.001-8.697-11.487-11.822-15.891-4.322l-52.58,89.527l-30.311-16.047l94.358-161.58
			c1.861-3.189,4.253-6.027,7.08-8.402c5.1-4.288,11.391-6.87,17.988-7.431l40.161,72.29c3.003,5.405,10.577,5.922,14.286,0.976
			l17.935-23.915l-6.66,192.985l-0.109,3.138c0,0.001,0,0.002,0,0.004l-0.938,27.175c-0.067,1.946,0.533,3.857,1.702,5.414
			l25.6,34.133c3.413,4.551,10.24,4.551,13.653,0l25.6-34.133c1.168-1.558,1.769-3.468,1.702-5.414l-1.179-34.18
			c0-0.004,0-0.008,0-0.011l-1.169-33.963c-0.001-0.015-0.003-0.03-0.004-0.045l-1.574-45.658c-0.001-0.058,0.004-0.114,0.002-0.172
			l-1.178-33.963c0-0.01-0.002-0.019-0.003-0.028l-2.597-75.318l17.963,23.952c3.709,4.946,11.284,4.429,14.286-0.976l40.161-72.29
			c6.598,0.561,12.884,3.142,17.993,7.432c2.826,2.374,5.218,5.212,7.077,8.398l95.014,161.536l-28.99,18.442L390.353,192.582z"/>
	</g>
</g>
</svg>